<svg width="18" height="14" viewBox="0 0 18 14" fill="none" xmlns="http://www.w3.org/2000/svg">
<path d="M17.2224 1.66074C16.589 1.94138 15.9087 2.13101 15.1934 2.21672C15.9314 1.77511 16.4836 1.08009 16.7468 0.261315C16.0534 0.67317 15.2946 0.963071 14.5032 1.11841C13.971 0.5502 13.2661 0.173577 12.498 0.0470209C11.7298 -0.0795356 10.9414 0.0510542 10.255 0.418516C9.5687 0.785977 9.02289 1.36975 8.70233 2.0792C8.38177 2.78866 8.30441 3.58409 8.48225 4.34202C7.07728 4.27148 5.70284 3.9063 4.44814 3.27019C3.19343 2.63409 2.0865 1.74126 1.19918 0.649665C0.895783 1.17303 0.721329 1.77982 0.721329 2.42606C0.72099 3.00782 0.864254 3.58067 1.13841 4.09379C1.41256 4.6069 1.80913 5.04441 2.29293 5.3675C1.73185 5.34965 1.18316 5.19804 0.692506 4.9253V4.97081C0.692449 5.78675 0.974691 6.57759 1.49134 7.20913C2.00799 7.84066 2.72722 8.274 3.527 8.43562C3.00651 8.57648 2.46081 8.59723 1.93113 8.49629C2.15678 9.19837 2.59633 9.8123 3.18823 10.2522C3.78014 10.692 4.49478 10.9358 5.2321 10.9493C3.98046 11.9318 2.43468 12.4648 0.843446 12.4625C0.561575 12.4625 0.279943 12.4461 0 12.4132C1.6152 13.4517 3.4954 14.0028 5.41565 14.0007C11.916 14.0007 15.4695 8.6169 15.4695 3.9476C15.4695 3.7959 15.4657 3.64269 15.4589 3.49099C16.1501 2.99112 16.7467 2.37213 17.2209 1.66301L17.2224 1.66074Z" fill="#F9F9F9"/>
</svg>
