<svg width="16" height="16" viewBox="0 0 16 16" fill="none" xmlns="http://www.w3.org/2000/svg">
<path fill-rule="evenodd" clip-rule="evenodd" d="M15.13 15.1028H11.9948V10.1977C11.9948 9.02724 11.9752 7.52308 10.366 7.52308C8.73502 7.52308 8.48584 8.79769 8.48584 10.1131V15.1028H5.35367V5.01463H8.35898V6.3942H8.40277C8.82034 5.60135 9.84351 4.76469 11.3688 4.76469C14.5433 4.76469 15.1292 6.85331 15.1292 9.57016L15.13 15.1028ZM1.81904 3.63733C1.58011 3.63752 1.34348 3.59061 1.12269 3.49926C0.901904 3.40792 0.701295 3.27394 0.532342 3.10498C0.363389 2.93603 0.229407 2.73542 0.138062 2.51464C0.0467173 2.29385 -0.000197989 2.05722 6.28001e-07 1.81829C7.5202e-07 1.45873 0.106603 1.10724 0.306332 0.808257C0.506061 0.509275 0.78995 0.27622 1.12211 0.138554C1.45427 0.00088791 1.81979 -0.0352083 2.17246 0.0348283C2.52513 0.104865 2.84912 0.27789 3.10347 0.532031C3.35783 0.786171 3.53112 1.11002 3.60145 1.46263C3.67178 1.81524 3.63599 2.18079 3.4986 2.51307C3.36121 2.84534 3.12839 3.12942 2.82957 3.3294C2.53075 3.52938 2.17935 3.63627 1.8198 3.63657L1.81904 3.63733ZM3.38739 15.1028H0.249184V5.01463H3.38739V15.1028Z" fill="#F9F9F9"/>
</svg>
